<svg width="800" height="800" viewBox="0 0 800 800" fill="none" xmlns="http://www.w3.org/2000/svg">
<g clip-path="url(#clip0_1340_12674)">
<path d="M617.564 286.033C617.63 285.331 617.672 284.617 617.672 283.897V217.67C617.672 97.6459 520.023 0 400.002 0C279.977 0 182.331 97.6459 182.331 217.67V283.897C182.331 284.617 182.373 285.331 182.439 286.033C153.915 286.665 130.892 310.023 130.892 338.695V747.274C130.892 776.344 154.545 799.997 183.614 799.997H616.392C645.462 799.997 669.115 776.344 669.115 747.274V338.698C669.112 310.023 646.088 286.665 617.564 286.033ZM227.519 217.67C227.519 122.567 304.892 45.1911 399.998 45.1911C495.105 45.1911 572.478 122.567 572.478 217.67V283.897C572.478 284.599 572.52 285.288 572.583 285.972H227.417C227.48 285.285 227.522 284.599 227.522 283.897L227.519 217.67ZM623.92 747.277C623.92 751.359 620.471 754.809 616.389 754.809H183.611C179.529 754.809 176.08 751.359 176.08 747.277V338.698C176.08 334.616 179.529 331.166 183.611 331.166H616.389C620.471 331.166 623.92 334.616 623.92 338.698V747.277Z" fill="#000"/>
<path d="M437.652 442.042H362.351C334.941 442.042 312.641 464.342 312.641 491.752V526.16C312.641 546.523 322.062 573.026 340.045 584.273C343.151 586.394 349.095 597.758 349.095 609.209V629.69C349.095 657.1 371.396 679.4 398.805 679.4H401.201C428.61 679.4 450.911 657.1 450.911 629.69V609.209C450.911 597.755 456.855 586.394 459.937 584.288C477.944 573.029 487.365 546.523 487.365 526.16V491.752C487.362 464.342 465.062 442.042 437.652 442.042ZM448.196 526.16C448.196 537.615 442.252 548.976 439.167 551.085C421.163 562.346 411.742 588.849 411.742 609.212V629.693C411.742 635.408 406.913 640.238 401.198 640.238H398.802C393.087 640.238 388.258 635.408 388.258 629.693V609.212C388.258 588.849 378.837 562.343 360.857 551.1C357.748 548.979 351.807 537.615 351.807 526.163V491.755C351.807 486.04 356.636 481.21 362.351 481.21H437.652C443.367 481.21 448.196 486.04 448.196 491.755V526.16Z" fill="#E1251B"/>
</g>
<defs>
<clipPath id="clip0_1340_12674">
<rect width="800" height="800" fill="white"/>
</clipPath>
</defs>
</svg>
