<svg width="110" height="110" viewBox="0 0 110 110" fill="none" xmlns="http://www.w3.org/2000/svg">
<path d="M38.6293 19.8675H69.6345C70.3726 19.8675 70.971 19.2692 70.971 18.5308C70.971 17.7924 70.3726 17.1943 69.6345 17.1943H38.6293C37.891 17.1943 37.2926 17.7927 37.2926 18.5308C37.2929 19.2692 37.891 19.8675 38.6293 19.8675Z" fill="#000"/>
<path d="M108.663 66.406C107.925 66.406 107.327 67.0044 107.327 67.7425V96.4386C107.327 99.0678 105.187 101.207 102.558 101.207H7.44196C4.81251 101.207 2.67317 99.0678 2.67317 96.4386V24.6354C2.67317 22.0062 4.56179 19.8675 6.88366 19.8675H12.4306C13.169 19.8675 13.767 19.2692 13.767 18.5308C13.767 17.7924 13.1687 17.1943 12.4306 17.1943H6.88396C3.08808 17.1943 0 20.5325 0 24.6354V96.4389C0 100.542 3.33879 103.88 7.44196 103.88H102.559C106.662 103.88 110 100.542 110 96.4389V67.7428C110 67.0044 109.402 66.406 108.663 66.406Z" fill="#000"/>
<path d="M95.161 19.8677H100.308C101.282 19.8677 102.209 20.2597 102.917 20.9711C103.68 21.7383 104.096 22.768 104.09 23.87L104.011 38.4573C104 40.6721 102.187 42.4745 99.9723 42.4745H13.7202C12.9818 42.4745 12.3838 43.0729 12.3838 43.8113C12.3838 44.5497 12.9821 45.1477 13.7202 45.1477H99.9732C103.654 45.1477 106.665 42.1529 106.685 38.4723L106.763 23.8852C106.773 22.0657 106.08 20.3621 104.813 19.0868C103.598 17.8675 101.999 17.1948 100.308 17.1948H95.1613C94.4232 17.1948 93.8249 17.7932 93.8249 18.5313C93.8246 19.2693 94.4236 19.8677 95.161 19.8677Z" fill="#000"/>
<path d="M24.1653 25.901H26.0582C29.1992 25.901 31.7546 23.3461 31.7546 20.2052V11.8157C31.7546 8.67472 29.1992 6.11987 26.0582 6.11987H24.1653C21.0243 6.11987 18.4689 8.67472 18.4689 11.8157V20.2046C18.4686 23.3458 21.0243 25.901 24.1653 25.901ZM21.1417 11.8157C21.1417 10.1487 22.498 8.79274 24.165 8.79274H26.0579C27.7248 8.79274 29.0812 10.1487 29.0812 11.8157V20.2046C29.0812 21.8715 27.7248 23.2275 26.0579 23.2275H24.165C22.498 23.2275 21.1417 21.8715 21.1417 20.2046V11.8157Z" fill="#E1251B"/>
<path d="M81.9841 25.901H83.8764C87.0174 25.901 89.5729 23.3461 89.5729 20.2052V11.8157C89.5729 8.67472 87.0177 6.11987 83.8764 6.11987H81.9841C78.8432 6.11987 76.2877 8.67472 76.2877 11.8157V20.2046C76.2877 23.3458 78.8429 25.901 81.9841 25.901ZM78.9606 11.8157C78.9606 10.1487 80.3169 8.79274 81.9841 8.79274H83.8764C85.5431 8.79274 86.9 10.1487 86.9 11.8157V20.2046C86.9 21.8715 85.5431 23.2275 83.8764 23.2275H81.9841C80.3169 23.2275 78.9606 21.8715 78.9606 20.2046V11.8157Z" fill="#E1251B"/>
</svg>
