<svg width="30" height="31" viewBox="0 0 30 31" fill="none" xmlns="http://www.w3.org/2000/svg">
<path fill-rule="evenodd" clip-rule="evenodd" d="M15 3.49414C8.61421 3.49414 3.4375 8.67085 3.4375 15.0566C3.4375 21.4424 8.61421 26.6191 15 26.6191C21.3858 26.6191 26.5625 21.4424 26.5625 15.0566C26.5625 8.67085 21.3858 3.49414 15 3.49414ZM1.5625 15.0566C1.5625 7.63531 7.57867 1.61914 15 1.61914C22.4213 1.61914 28.4375 7.63531 28.4375 15.0566C28.4375 22.478 22.4213 28.4941 15 28.4941C7.57867 28.4941 1.5625 22.478 1.5625 15.0566ZM10.625 9.11914C11.4879 9.11914 12.1875 9.8187 12.1875 10.6816C12.1875 11.5446 11.4879 12.2441 10.625 12.2441C9.76206 12.2441 9.0625 11.5446 9.0625 10.6816C9.0625 9.8187 9.76206 9.11914 10.625 9.11914ZM19.375 9.11914C20.2379 9.11914 20.9375 9.8187 20.9375 10.6816C20.9375 11.5446 20.2379 12.2441 19.375 12.2441C18.5121 12.2441 17.8125 11.5446 17.8125 10.6816C17.8125 9.8187 18.5121 9.11914 19.375 9.11914ZM10.1221 19.998C10.1216 19.9987 10.1215 19.9988 10.1219 19.9984L10.122 19.9982C9.81051 20.4089 9.2254 20.4913 8.81256 20.1816C8.39834 19.871 8.31439 19.2834 8.62506 18.8691L9.37506 19.4316C8.62506 18.8691 8.62533 18.8688 8.62561 18.8684L8.6262 18.8676L8.62752 18.8659L8.63071 18.8617L8.63925 18.8506C8.64589 18.842 8.65447 18.831 8.66496 18.8179C8.68595 18.7917 8.71468 18.7566 8.75114 18.7141C8.82403 18.6291 8.92817 18.5136 9.0637 18.3781C9.33431 18.1075 9.7331 17.7537 10.2613 17.4016C11.3212 16.6949 12.9054 15.9941 15.0001 15.9941C17.0947 15.9941 18.6789 16.6949 19.7388 17.4016C20.267 17.7537 20.6658 18.1075 20.9364 18.3781C21.0719 18.5136 21.1761 18.6291 21.249 18.7141C21.2854 18.7566 21.3142 18.7917 21.3351 18.8179C21.3411 18.8254 21.3465 18.8322 21.3512 18.8382C21.3548 18.8427 21.358 18.8469 21.3609 18.8506L21.3694 18.8617L21.3726 18.8659L21.3739 18.8676L21.3745 18.8684C21.3748 18.8688 21.3751 18.8691 20.6251 19.4316C19.8751 19.9941 19.8753 19.9945 19.8756 19.9948L19.876 19.9954L19.8768 19.9965L19.878 19.998L19.871 19.9892C19.8627 19.9788 19.8475 19.9601 19.8254 19.9343C19.7811 19.8827 19.7094 19.8028 19.6106 19.7039C19.4124 19.5058 19.1081 19.2346 18.6988 18.9617C17.8837 18.4183 16.6554 17.8691 15.0001 17.8691C13.3447 17.8691 12.1164 18.4183 11.3013 18.9617C10.892 19.2346 10.5877 19.5058 10.3895 19.7039C10.2907 19.8028 10.2191 19.8827 10.1747 19.9343C10.1526 19.9601 10.1374 19.9788 10.1291 19.9892L10.1221 19.998Z" fill="#CC392A"/>
</svg>
