<svg width="24" height="22" viewBox="0 0 24 22" fill="none" xmlns="http://www.w3.org/2000/svg">
<path d="M5.40995 19.8946C4.28995 19.8946 3.57995 19.5471 3.12995 19.1354C2.24995 18.3305 1.62995 16.62 3.60995 12.9887L4.47995 11.4063C4.58995 11.1959 4.58995 10.7569 4.47995 10.5465L3.60995 8.96407C1.61995 5.33274 2.24995 3.61312 3.12995 2.81734C3.99995 2.01241 5.87995 1.43615 9.83995 3.25639L18.3999 7.17127C20.5299 8.14084 21.6999 9.49459 21.6999 10.9764C21.6999 12.4582 20.5299 13.8119 18.4099 14.7815L9.84995 18.6964C7.90995 19.5836 6.46995 19.8946 5.40995 19.8946ZM5.40995 3.43018C4.86995 3.43018 4.44995 3.54909 4.18995 3.78691C3.45995 4.44549 3.74995 6.15596 4.94995 8.34208L5.81995 9.93364C6.13995 10.5282 6.13995 11.4246 5.81995 12.0191L4.94995 13.6016C3.74995 15.7968 3.45995 17.4981 4.18995 18.1567C4.90995 18.8244 6.77995 18.5592 9.17995 17.4616L17.7399 13.5467C19.3099 12.8332 20.1999 11.8911 20.1999 10.9672C20.1999 10.0434 19.2999 9.10127 17.7299 8.38781L9.16995 4.48208C7.64995 3.78691 6.33995 3.43018 5.40995 3.43018Z" fill="#E1251B"/>
</svg>
