<svg width="100" height="100" viewBox="0 0 100 100" fill="none" xmlns="http://www.w3.org/2000/svg">
<g clip-path="url(#clip0_567_3489)">
<path d="M29.4872 47.094C28.1197 45.7265 25.8974 45.7265 24.5299 47.094C23.1624 48.4615 23.1624 50.6837 24.5299 52.0513L40.6838 68.2051C41.3675 68.8889 42.2222 69.2308 43.1624 69.2308C43.2479 69.2308 43.2479 69.2308 43.3333 69.2308C44.2735 69.1453 45.2137 68.7179 45.8974 67.9487L86.3248 19.4872C87.5214 18.0342 87.3504 15.812 85.8974 14.5299C84.4444 13.3333 82.2222 13.5043 80.9402 14.9573L42.906 60.5128L29.4872 47.094Z" fill="#17AB13"/>
<path d="M76.1539 7.94871C56.4958 -4.35898 31.2821 -1.453 14.8718 14.9573C-4.44442 34.2735 -4.44442 65.812 14.8718 85.1282C24.5299 94.7863 37.265 99.6581 49.9146 99.6581C62.5641 99.6581 75.2992 94.7863 84.9573 85.1282C101.453 68.6325 104.274 43.3333 91.8804 23.6752C90.8547 22.0513 88.718 21.5385 87.0941 22.5641C85.4701 23.5897 84.9573 25.7265 85.9829 27.3504C96.6667 44.2735 94.1881 65.9829 80 80.1709C63.4188 96.7521 36.3248 96.7521 19.7436 80.1709C3.16242 63.5897 3.16242 36.4957 19.7436 19.9145C33.9317 5.81196 55.5556 3.33333 72.4787 13.8462C74.1026 14.8718 76.2393 14.359 77.265 12.735C78.2906 11.1111 77.7778 8.97436 76.1539 7.94871Z" fill="white"/>
</g>
<defs>
<clipPath id="clip0_567_3489">
<rect width="100" height="100" fill="white"/>
</clipPath>
</defs>
</svg>
