<svg width="350" height="350" viewBox="0 0 350 350" fill="none" xmlns="http://www.w3.org/2000/svg">
<g clip-path="url(#clip0_1655_2231)">
<mask id="mask0_1655_2231" style="mask-type:luminance" maskUnits="userSpaceOnUse" x="0" y="0" width="350" height="350">
<path d="M350 0H0V350H350V0Z" fill="white"/>
</mask>
<g mask="url(#mask0_1655_2231)">
<mask id="mask1_1655_2231" style="mask-type:luminance" maskUnits="userSpaceOnUse" x="0" y="0" width="350" height="350">
<path d="M0 0H350V350H0V0Z" fill="white"/>
</mask>
<g mask="url(#mask1_1655_2231)">
<mask id="mask2_1655_2231" style="mask-type:luminance" maskUnits="userSpaceOnUse" x="0" y="0" width="350" height="350">
<path d="M0 0H350V350H0V0Z" fill="white"/>
</mask>
<g mask="url(#mask2_1655_2231)">
<path d="M176.687 326.101C250.986 312.671 281.959 272.163 303.446 199.486C324.941 126.803 362.266 -1.38776 244.477 35.7239C130.448 71.652 64.8493 113.209 30.723 180.411C14.3758 212.595 10.2868 267.141 32.8409 284.346C47.18 295.276 66.3076 276.856 80.6663 259.769C95.0187 242.675 91.421 238.462 95.6999 226.269C104.589 200.974 141.607 216.74 140.819 230.37C140.03 244 105.488 263.862 92.9704 273.437C69.7237 291.211 89.4797 311.735 96.5925 318.237C114.144 334.279 150.359 330.86 176.687 326.101Z" fill="#D24E4E"/>
</g>
<mask id="mask3_1655_2231" style="mask-type:alpha" maskUnits="userSpaceOnUse" x="17" y="29" width="310" height="302">
<mask id="mask4_1655_2231" style="mask-type:luminance" maskUnits="userSpaceOnUse" x="0" y="0" width="350" height="350">
<path d="M0 0H350V350H0V0Z" fill="white"/>
</mask>
<g mask="url(#mask4_1655_2231)">
<path d="M176.687 326.101C250.986 312.671 281.959 272.163 303.446 199.486C324.941 126.803 362.266 -1.38776 244.477 35.7239C130.448 71.652 64.8493 113.209 30.723 180.411C14.3758 212.595 10.2868 267.141 32.8409 284.346C47.18 295.276 66.3076 276.856 80.6663 259.769C95.0187 242.675 91.421 238.462 95.6999 226.269C104.589 200.974 141.607 216.74 140.819 230.37C140.03 244 105.488 263.862 92.9704 273.437C69.7237 291.211 89.4797 311.735 96.5925 318.237C114.144 334.279 150.359 330.86 176.687 326.101Z" fill="#4DCDCB"/>
</g>
</mask>
<g mask="url(#mask3_1655_2231)">
<mask id="mask5_1655_2231" style="mask-type:luminance" maskUnits="userSpaceOnUse" x="0" y="0" width="350" height="350">
<path d="M0 0H350V350H0V0Z" fill="white"/>
</mask>
<g mask="url(#mask5_1655_2231)">
<path d="M237.618 93.8786C272.768 71.6892 302.84 157.952 336.035 207.027C336.035 207.027 349.316 226.27 342.272 260.926C325.198 344.93 218.206 384.2 159.627 380.106C141.375 378.828 69.0431 369.824 104.044 312.731C123.383 281.833 172.458 270.806 185.918 216.543C200.294 158.615 202.119 116.287 237.618 93.8786Z" fill="#D24E4E"/>
<path d="M242.997 271.152C253.815 268.236 257.021 274.343 258.742 285C273.177 392.343 91.6557 382.367 175.77 345.165C183.744 341.105 191.379 335.366 197.321 325.519C213.77 298.263 221.374 276.98 242.997 271.152Z" fill="#D24E4E"/>
<path d="M90.9538 149.82C79.8338 154.605 63.2409 154.906 56.8698 141.166C36.8651 92.4141 176.318 30.5489 151.705 95.1669C151.705 95.1669 132.226 132.063 90.9538 149.82Z" fill="#D24E4E"/>
</g>
</g>
<mask id="mask6_1655_2231" style="mask-type:alpha" maskUnits="userSpaceOnUse" x="17" y="29" width="310" height="302">
<mask id="mask7_1655_2231" style="mask-type:luminance" maskUnits="userSpaceOnUse" x="0" y="0" width="350" height="350">
<path d="M0 0H350V350H0V0Z" fill="white"/>
</mask>
<g mask="url(#mask7_1655_2231)">
<path d="M176.687 326.101C250.986 312.671 281.959 272.163 303.446 199.486C324.941 126.803 362.266 -1.38776 244.477 35.7239C130.448 71.652 64.8493 113.209 30.723 180.411C14.3758 212.595 10.2868 267.141 32.8409 284.346C47.18 295.276 66.3076 276.856 80.6663 259.769C95.0187 242.675 91.421 238.462 95.6999 226.269C104.589 200.974 141.607 216.74 140.819 230.37C140.03 244 105.488 263.862 92.9704 273.437C69.7237 291.211 89.4797 311.735 96.5925 318.237C114.144 334.279 150.359 330.86 176.687 326.101Z" fill="#4DCDCB"/>
</g>
</mask>
<g mask="url(#mask6_1655_2231)">
<mask id="mask8_1655_2231" style="mask-type:luminance" maskUnits="userSpaceOnUse" x="0" y="0" width="350" height="350">
<path d="M0 0H350V350H0V0Z" fill="white"/>
</mask>
<g mask="url(#mask8_1655_2231)">
<mask id="mask9_1655_2231" style="mask-type:luminance" maskUnits="userSpaceOnUse" x="0" y="0" width="350" height="350">
<path d="M0 0H350V350H0V0Z" fill="white"/>
</mask>
<g mask="url(#mask9_1655_2231)">
<mask id="mask10_1655_2231" style="mask-type:luminance" maskUnits="userSpaceOnUse" x="0" y="0" width="350" height="350">
<path d="M0 0H350V350H0V0Z" fill="white"/>
</mask>
<g mask="url(#mask10_1655_2231)">
<g opacity="0.7">
<path d="M5.41675 230.504L28.1189 210.769" stroke="white" stroke-width="8" stroke-linecap="round" stroke-linejoin="round"/>
</g>
<path d="M315.983 154.349L338.686 134.614" stroke="white" stroke-width="8" stroke-linecap="round" stroke-linejoin="round"/>
<path d="M248.613 181.03L271.315 161.295" stroke="white" stroke-width="8" stroke-linecap="round" stroke-linejoin="round"/>
<path d="M323.218 29.7303L345.92 9.995" stroke="white" stroke-width="8" stroke-linecap="round" stroke-linejoin="round"/>
<path d="M60.8857 148.959L83.5879 129.224" stroke="white" stroke-width="8" stroke-linecap="round" stroke-linejoin="round"/>
<path d="M191.941 31.8173L214.643 12.082" stroke="white" stroke-width="8" stroke-linecap="round" stroke-linejoin="round"/>
<path d="M280.358 234.883L303.061 215.147" stroke="white" stroke-width="8" stroke-linecap="round" stroke-linejoin="round"/>
<path d="M257.56 28.9719L280.262 9.23657" stroke="white" stroke-width="8" stroke-linecap="round" stroke-linejoin="round"/>
<path d="M87.0037 333.417L109.706 313.681" stroke="white" stroke-width="8" stroke-linecap="round" stroke-linejoin="round"/>
<g opacity="0.2">
<path d="M191.121 195.551L213.823 175.816" stroke="white" stroke-width="8" stroke-linecap="round" stroke-linejoin="round"/>
</g>
</g>
</g>
</g>
</g>
</g>
<mask id="mask11_1655_2231" style="mask-type:luminance" maskUnits="userSpaceOnUse" x="-30" y="33" width="351" height="351">
<path d="M-29.4143 33.5475H320.586V383.547H-29.4143V33.5475Z" fill="white"/>
</mask>
<g mask="url(#mask11_1655_2231)">
<mask id="mask12_1655_2231" style="mask-type:luminance" maskUnits="userSpaceOnUse" x="-43" y="54" width="343" height="343">
<path d="M-42.0603 54.7393H299.736V396.535H-42.0603V54.7393Z" fill="white"/>
</mask>
<g mask="url(#mask12_1655_2231)">
<mask id="mask13_1655_2231" style="mask-type:luminance" maskUnits="userSpaceOnUse" x="-48" y="60" width="342" height="343">
<path d="M-47.7993 60.4332L254.38 99.7386L293.686 402.538L-8.49393 363.233L-47.7993 60.4332Z" fill="white"/>
</mask>
<g mask="url(#mask13_1655_2231)">
<path d="M58.635 298.721C82.4665 304.141 100.055 301.161 111.412 289.777C122.769 278.393 125.738 260.767 120.323 236.887C96.4976 231.468 78.9097 234.454 67.5527 245.838C56.1957 257.222 53.2209 274.847 58.635 298.721Z" fill="#FFD700"/>
<path d="M58.635 298.721C82.4665 304.141 100.055 301.161 111.412 289.777C122.769 278.393 125.738 260.767 120.323 236.887C96.4976 231.468 78.9097 234.454 67.5527 245.838C56.1957 257.222 53.2209 274.847 58.635 298.721Z" stroke="#1F1F20" stroke-width="8.49385" stroke-linecap="round" stroke-linejoin="round"/>
<path d="M67.1704 290.678C86.8707 295.159 101.41 292.689 110.8 283.277C120.191 273.864 122.651 259.294 118.174 239.554C98.4806 235.079 83.9356 237.548 74.5509 246.961C65.1596 256.368 62.7 270.944 67.1704 290.678Z" fill="#FFA500"/>
<path d="M73.6844 284.151C93.3846 288.632 107.924 286.162 117.314 276.75C126.705 267.337 129.165 252.767 124.688 233.027C104.995 228.552 90.4495 231.021 81.0649 240.434C71.6735 249.841 69.2139 264.417 73.6844 284.151Z" fill="#FF8B00"/>
</g>
</g>
<path d="M66.1313 205.561L54.7973 216.396C53.6899 217.455 53.6557 219.212 54.7153 220.319C55.146 220.771 55.7134 221.064 56.3354 221.146L67.6216 222.739C71.7983 223.32 75.7973 224.817 79.3315 227.121L90.2964 234.244L112.499 194.589L78.2446 199.641C73.6919 200.311 69.4604 202.375 66.1313 205.561Z" fill="#1F1F20"/>
<path d="M66.1313 205.561L54.7973 216.396C53.6899 217.455 53.6557 219.212 54.7153 220.319C55.146 220.771 55.7134 221.064 56.3354 221.146L67.6216 222.739C71.7983 223.32 75.7973 224.817 79.3315 227.121L90.2964 234.244L112.499 194.589L78.2446 199.641C73.6919 200.311 69.4604 202.375 66.1313 205.561Z" stroke="#1F1F20" stroke-width="10" stroke-linecap="round" stroke-linejoin="round"/>
<path d="M70.7991 209.852L66.6566 213.81C65.5423 214.863 65.5013 216.62 66.5609 217.734C66.9984 218.185 67.5726 218.479 68.1947 218.568L71.1956 218.972C75.3929 219.546 79.4124 221.029 82.9671 223.326L88.1146 226.655L102.614 200.966L82.8099 203.967C78.2913 204.643 74.1009 206.701 70.7991 209.852Z" fill="#92A4B9"/>
<path d="M154.611 290.549L145.239 303.12C144.316 304.35 142.58 304.603 141.35 303.687C140.851 303.311 140.488 302.778 140.331 302.177L137.378 291.171C136.284 287.096 134.315 283.309 131.602 280.076L123.193 270.068L159.848 243.196L159.007 277.806C158.897 282.407 157.359 286.864 154.611 290.549Z" fill="#1F1F20"/>
<path d="M154.611 290.549L145.239 303.12C144.316 304.35 142.58 304.603 141.35 303.687C140.851 303.311 140.488 302.778 140.331 302.177L137.378 291.171C136.284 287.096 134.315 283.309 131.602 280.076L123.193 270.068L159.848 243.196L159.007 277.806C158.897 282.407 157.359 286.864 154.611 290.549Z" stroke="#1F1F20" stroke-width="9.746" stroke-linecap="round" stroke-linejoin="round"/>
<path d="M148.812 288.669L145.503 293.112C144.594 294.343 142.851 294.595 141.621 293.679C141.115 293.303 140.752 292.77 140.595 292.162L139.823 289.229C138.75 285.135 136.781 281.327 134.067 278.08L129.254 272.474L154.575 256.677L153.201 275.687C153.146 280.37 151.608 284.909 148.812 288.669Z" fill="#92A4B9"/>
<g opacity="0.3">
<path d="M131.773 277.707C131.773 277.707 137.632 275.512 144.573 271.935C151.514 268.368 157.581 263.703 157.581 263.703L157.933 254.282L128.046 273.206L131.773 277.707Z" fill="#384A9F"/>
</g>
<path d="M85.5923 229.474L106.497 250.378L98.6968 258.178L76.9106 236.399C76.2612 235.749 76.2612 234.69 76.9106 234.04C77.0337 233.917 77.1772 233.822 77.3276 233.74L85.5923 229.474Z" fill="#FF5078"/>
<path d="M85.5923 229.474L106.497 250.378L98.6968 258.178L76.9106 236.399C76.2612 235.749 76.2612 234.69 76.9106 234.04C77.0337 233.917 77.1772 233.822 77.3276 233.74L85.5923 229.474Z" stroke="#1F1F20" stroke-width="9.746" stroke-linecap="round" stroke-linejoin="round"/>
<path d="M101.185 260.67L122.089 281.574L126.218 271.484L108.11 252.104C107.481 251.434 106.428 251.4 105.758 252.029C105.615 252.159 105.499 252.309 105.41 252.48L101.185 260.67Z" fill="#FF5078"/>
<path d="M101.185 260.67L122.089 281.574L126.218 271.484L108.11 252.104C107.481 251.434 106.428 251.4 105.758 252.029C105.615 252.159 105.499 252.309 105.41 252.48L101.185 260.67Z" stroke="#1F1F20" stroke-width="9.746" stroke-linecap="round" stroke-linejoin="round"/>
<path d="M109.419 255.959L113.846 260.667L108.689 265.806L104.111 261.247L109.419 255.959Z" fill="#92A4B9"/>
<path d="M104.029 199.615L103.824 207.092C103.776 209 103.229 210.867 102.245 212.507L89.626 233.514L85.3945 229.276C91.5469 218.988 97.7539 209.096 104.029 199.615Z" fill="#35404C"/>
<path d="M228.546 134.753C239.18 145.386 239.177 162.655 228.542 173.29C217.906 183.926 200.637 183.928 190.004 173.295C179.371 162.662 179.373 145.393 190.009 134.757C200.644 124.121 217.913 124.119 228.546 134.753Z" fill="#35404C"/>
<path d="M145.036 231.107L116.13 260.014L108.331 252.215L137.238 223.309L145.036 231.107Z" fill="#35404C"/>
<path d="M271.387 135.694C266.479 153.618 256.17 170.434 240.468 186.136C211.094 215.51 173.927 243.688 128.96 270.663L127.6 271.483L85.395 229.278C112.623 183.703 141.074 146.078 170.742 116.41C186.17 100.981 202.672 90.7612 220.254 85.7505C221.375 88.2798 222.476 90.6792 223.563 92.9487C222.674 90.5561 221.881 88.0678 221.184 85.4907L222.914 85.1352C232.593 83.1596 240.147 82.1616 245.575 82.1274C251.317 82.0932 260.019 83.1186 271.681 85.1967L271.982 86.9467C273.855 97.8637 274.778 106.012 274.75 111.392C274.716 116.957 273.636 124.859 271.51 135.106L271.387 135.694Z" fill="#EEF3F9"/>
<path d="M271.387 135.694C266.479 153.618 256.17 170.434 240.468 186.136C211.094 215.51 173.927 243.688 128.96 270.663L127.6 271.483L85.395 229.278C112.623 183.703 141.074 146.078 170.742 116.41C186.17 100.981 202.672 90.7612 220.254 85.7505C221.375 88.2798 222.476 90.6792 223.563 92.9487C222.674 90.5561 221.881 88.0678 221.184 85.4907L222.914 85.1352C232.593 83.1596 240.147 82.1616 245.575 82.1274C251.317 82.0932 260.019 83.1186 271.681 85.1967L271.982 86.9467C273.855 97.8637 274.778 106.012 274.75 111.392C274.716 116.957 273.636 124.859 271.51 135.106L271.387 135.694Z" stroke="#1F1F20" stroke-width="10" stroke-linecap="round" stroke-linejoin="round"/>
<path d="M269.993 133.972L269.726 135.285L269.74 135.237C264.914 152.867 254.762 169.423 239.258 184.927L238.376 185.802C209.542 214.465 173.216 242 129.412 268.401L127.88 269.372L127.101 268.572L124.784 266.254L125.932 265.414C178.459 227.064 210.253 200.452 228.806 180.627C247.352 160.803 258.72 137.397 262.22 131.634C263.006 130.335 265.597 131.115 269.993 133.972Z" fill="#C9CCCE"/>
<path d="M228.088 128.789C238.722 139.422 238.719 156.69 228.084 167.326C217.448 177.962 200.179 177.964 189.546 167.331C178.913 156.698 178.915 139.429 189.551 128.793C200.186 118.157 217.455 118.155 228.088 128.789Z" fill="#1F1F20"/>
<path d="M228.088 128.789C238.722 139.422 238.719 156.69 228.084 167.326C217.448 177.962 200.179 177.964 189.546 167.331C178.913 156.698 178.915 139.429 189.551 128.793C200.186 118.157 217.455 118.155 228.088 128.789Z" stroke="#1F1F20" stroke-width="10" stroke-linecap="round" stroke-linejoin="round"/>
<path d="M136.972 219.373L137.505 219.906C138.374 220.767 138.374 222.176 137.505 223.044L98.4312 262.118C97.563 262.986 96.1548 262.986 95.2935 262.118L94.7603 261.585C93.8921 260.717 93.8921 259.315 94.7603 258.447L133.834 219.373C134.703 218.505 136.104 218.505 136.972 219.373Z" fill="#1F1F20"/>
<path d="M136.972 219.373L137.505 219.906C138.374 220.767 138.374 222.176 137.505 223.044L98.4312 262.118C97.563 262.986 96.1548 262.986 95.2935 262.118L94.7603 261.585C93.8921 260.717 93.8921 259.315 94.7603 258.447L133.834 219.373C134.703 218.505 136.104 218.505 136.972 219.373Z" stroke="#1F1F20" stroke-width="10" stroke-linecap="round" stroke-linejoin="round"/>
<path d="M300.586 54.4578L302.418 56.2898L272.593 87.9507C272.593 87.9507 270.757 87.9507 269.843 87.0372C268.925 86.1188 268.925 84.2819 268.925 84.2819L300.586 54.4578Z" fill="#1F1F20"/>
<path d="M302.879 53.9979C303.385 54.5042 303.385 55.3265 302.878 55.833C302.372 56.3395 301.55 56.3396 301.043 55.8333C300.537 55.3269 300.537 54.5046 301.043 53.9981C301.55 53.4917 302.372 53.4916 302.879 53.9979Z" fill="#544A4A"/>
<path d="M302.879 53.9979C303.385 54.5042 303.385 55.3265 302.878 55.833C302.372 56.3395 301.55 56.3396 301.043 55.8333C300.537 55.3269 300.537 54.5046 301.043 53.9981C301.55 53.4917 302.372 53.4916 302.879 53.9979Z" stroke="#1F1F20" stroke-width="10" stroke-linecap="round" stroke-linejoin="round"/>
<path d="M239.099 117.779C226.55 105.23 221.185 85.4894 221.185 85.4894C221.185 85.4894 236.957 82.1783 245.571 82.13C254.19 82.0768 271.678 85.1994 271.678 85.1994C271.678 85.1994 274.801 102.901 274.747 111.393C274.699 119.891 271.388 135.693 271.388 135.693C271.388 135.693 251.652 130.322 239.099 117.779Z" fill="#92A4B9"/>
<path d="M239.099 117.779C226.55 105.23 221.185 85.4894 221.185 85.4894C221.185 85.4894 236.957 82.1783 245.571 82.13C254.19 82.0768 271.678 85.1994 271.678 85.1994C271.678 85.1994 274.801 102.901 274.747 111.393C274.699 119.891 271.388 135.693 271.388 135.693C271.388 135.693 251.652 130.322 239.099 117.779Z" stroke="#1F1F20" stroke-width="10" stroke-linecap="round" stroke-linejoin="round"/>
<path d="M270.068 86.9524L270.121 86.7349L270.426 88.4799C272.301 99.4042 273.07 105.886 273.036 111.266C273.007 116.931 272.277 122.94 270.068 133.472C265.795 132.312 266.08 132.404 262.31 130.741C275.013 104.32 268.777 92.4097 270.068 86.9524Z" fill="#92A4B9"/>
<mask id="mask14_1655_2231" style="mask-type:luminance" maskUnits="userSpaceOnUse" x="-30" y="33" width="351" height="351">
<path d="M-29.4143 33.5475H320.586V383.547H-29.4143V33.5475Z" fill="white"/>
</mask>
<g mask="url(#mask14_1655_2231)">
<mask id="mask15_1655_2231" style="mask-type:luminance" maskUnits="userSpaceOnUse" x="-30" y="33" width="351" height="351">
<path d="M-29.4143 33.5475H320.586V383.547H-29.4143V33.5475Z" fill="white"/>
</mask>
<g mask="url(#mask15_1655_2231)">
<g opacity="0.40516">
<path d="M146.653 198.952C146.681 198.979 146.708 199.006 146.729 199.034L147.269 199.697L147.816 200.36C149.429 202.301 150.803 203.832 151.924 204.953L152.293 205.323L152.71 205.719C154.009 206.95 155.718 208.426 157.844 210.142C158.316 210.532 158.391 211.229 158.008 211.707C157.981 211.735 157.953 211.769 157.926 211.796L156.757 212.965C156.354 213.369 155.711 213.403 155.267 213.047L154.617 212.514C152.368 210.675 150.611 209.137 149.347 207.886L149.169 207.708C147.774 206.314 145.99 204.277 143.83 201.604C143.475 201.166 143.509 200.524 143.912 200.12L145.081 198.952C145.519 198.514 146.223 198.514 146.653 198.952Z" fill="#1F1F20"/>
</g>
<g opacity="0.83374">
<path d="M152.16 193.446C152.187 193.473 152.214 193.501 152.235 193.528L152.775 194.191L153.588 195.175C155.003 196.864 156.227 198.231 157.246 199.27L157.43 199.448C158.791 200.815 160.766 202.544 163.35 204.636C163.822 205.026 163.897 205.723 163.514 206.202C163.487 206.229 163.46 206.263 163.432 206.291L162.263 207.46C161.86 207.863 161.217 207.897 160.773 207.542L160.124 207.008L159.461 206.468C157.533 204.869 155.995 203.502 154.853 202.38L154.675 202.203C153.281 200.808 151.497 198.771 149.337 196.098C148.981 195.661 149.015 195.018 149.419 194.615L150.587 193.446C151.025 193.008 151.729 193.008 152.16 193.446Z" fill="#1F1F20"/>
</g>
<path d="M157.665 187.94C157.693 187.967 157.72 187.994 157.741 188.022L158.547 188.999L159.087 189.655C160.591 191.453 161.869 192.882 162.936 193.941L163.305 194.311L163.722 194.707C165.021 195.938 166.73 197.414 168.856 199.13C169.327 199.52 169.403 200.217 169.02 200.695C168.993 200.723 168.965 200.757 168.938 200.784L167.769 201.953C167.366 202.357 166.723 202.391 166.279 202.035L165.629 201.502L164.973 200.962C162.936 199.273 161.336 197.852 160.181 196.696L159.826 196.334C158.486 194.953 156.825 193.046 154.842 190.592C154.487 190.154 154.521 189.512 154.924 189.108L156.093 187.94C156.531 187.502 157.235 187.502 157.665 187.94Z" fill="#1F1F20"/>
</g>
</g>
<path d="M180.376 120.536C181.135 121.296 181.135 122.529 180.376 123.289C179.616 124.048 178.383 124.049 177.623 123.289C176.864 122.53 176.864 121.296 177.623 120.536C178.383 119.777 179.616 119.777 180.376 120.536Z" fill="#1F1F20"/>
<path d="M236.34 176.501C237.1 177.26 237.1 178.494 236.34 179.253C235.58 180.013 234.347 180.013 233.587 179.254C232.828 178.494 232.828 177.261 233.588 176.501C234.347 175.742 235.581 175.741 236.34 176.501Z" fill="#1F1F20"/>
<path d="M160.116 234.585C162.698 232.452 164.794 230.752 166.139 229.779C173.452 224.496 180.954 235.633 180.954 235.633M120.146 262.769C126.507 262.129 142.63 249.072 154.362 239.355" stroke="#1F1F20" stroke-width="10" stroke-linecap="round" stroke-linejoin="round"/>
<path d="M122.683 197.751C124.815 195.169 126.515 193.073 127.488 191.728C132.772 184.415 121.635 176.913 121.635 176.913M94.4982 237.721C95.1382 231.36 108.195 215.237 117.912 203.505" stroke="#1F1F20" stroke-width="10" stroke-linecap="round" stroke-linejoin="round"/>
<path d="M265.532 116.952C264.068 123.134 262.236 128.031 260.027 131.632" stroke="#1F1F20" stroke-width="10" stroke-linecap="round" stroke-linejoin="round"/>
<path d="M175.971 158.439C177.011 163.767 180.55 169.478 184.056 171.873" stroke="#1F1F20" stroke-width="10" stroke-linecap="round" stroke-linejoin="round"/>
<g opacity="0.2">
<path d="M228.093 90.2507C228.093 90.2507 238.185 86.5771 249.197 86.5771" stroke="white" stroke-width="10" stroke-linecap="round" stroke-linejoin="round"/>
</g>
<mask id="mask16_1655_2231" style="mask-type:luminance" maskUnits="userSpaceOnUse" x="-30" y="33" width="351" height="351">
<path d="M-29.4143 33.5475H320.586V383.547H-29.4143V33.5475Z" fill="white"/>
</mask>
<g mask="url(#mask16_1655_2231)">
<path d="M223.959 132.918C232.314 141.273 232.312 154.841 223.955 163.198C215.599 171.554 202.03 171.556 193.675 163.201C185.321 154.847 185.322 141.278 193.679 132.922C202.036 124.565 215.604 124.563 223.959 132.918Z" fill="#1F1F20"/>
<path d="M192.443 140.232C192.443 140.232 188.562 150.396 195.205 158.607" stroke="#1F1F20" stroke-width="10" stroke-linecap="round" stroke-linejoin="round"/>
<path d="M199.852 162.79C199.852 162.79 209.371 168.04 218.427 162.604" stroke="#1F1F20" stroke-width="10" stroke-linecap="round" stroke-linejoin="round"/>
</g>
</g>
</g>
<g clip-path="url(#clip1_1655_2231)">
<path d="M196.647 153.758L198.037 152.507C198.352 152.223 198.701 151.987 199.075 151.819C199.449 151.65 199.831 151.541 200.209 151.516C200.592 151.485 200.964 151.542 201.337 151.677C201.704 151.818 202.041 152.053 202.343 152.387C202.649 152.728 202.847 153.088 202.949 153.467C203.051 153.847 203.063 154.229 202.992 154.607C202.92 154.985 202.784 155.354 202.572 155.703C202.365 156.057 202.095 156.379 201.779 156.663L200.39 157.914C200.074 158.198 199.725 158.434 199.351 158.602C198.977 158.771 198.595 158.88 198.218 158.905C197.834 158.937 197.462 158.879 197.089 158.744C196.722 158.603 196.385 158.368 196.078 158.028C195.771 157.687 195.573 157.327 195.477 156.954C195.375 156.574 195.363 156.193 195.435 155.814C195.506 155.436 195.642 155.067 195.854 154.719C196.061 154.364 196.325 154.048 196.647 153.758ZM200.574 155.808C200.732 155.666 200.855 155.51 200.955 155.342C201.055 155.173 201.12 154.991 201.154 154.814C201.184 154.631 201.177 154.446 201.129 154.265C201.081 154.084 200.984 153.913 200.833 153.746C200.688 153.585 200.528 153.471 200.354 153.404C200.179 153.337 199.996 153.311 199.81 153.321C199.625 153.331 199.443 153.383 199.265 153.465C199.087 153.547 198.913 153.658 198.761 153.795L197.852 154.613C197.694 154.756 197.571 154.911 197.471 155.08C197.372 155.248 197.307 155.43 197.272 155.607C197.242 155.79 197.249 155.975 197.297 156.156C197.346 156.337 197.442 156.508 197.587 156.669C197.738 156.836 197.898 156.95 198.072 157.017C198.247 157.084 198.43 157.11 198.616 157.1C198.801 157.09 198.983 157.038 199.161 156.956C199.339 156.875 199.513 156.763 199.665 156.627L200.574 155.808Z" fill="#ECF0EF"/>
<path d="M206.981 148.345C207.146 148.197 207.24 148.022 207.283 147.816C207.319 147.615 207.265 147.428 207.109 147.254C206.958 147.087 206.778 147.014 206.574 147.029C206.371 147.044 206.186 147.132 206.022 147.28L204.273 148.855L207.045 151.933L205.7 153.144L202.76 149.88C202.666 149.775 202.557 149.693 202.437 149.622C202.321 149.557 202.193 149.516 202.056 149.504C201.926 149.487 201.795 149.493 201.667 149.529C201.54 149.566 201.417 149.632 201.292 149.722L201.219 149.641L205.362 145.911C205.589 145.707 205.832 145.544 206.102 145.425C206.365 145.311 206.632 145.239 206.901 145.221C207.171 145.202 207.436 145.244 207.692 145.35C207.954 145.45 208.188 145.621 208.4 145.856C208.55 146.024 208.67 146.207 208.747 146.407C208.824 146.607 208.866 146.805 208.859 147.002C208.859 147.204 208.817 147.399 208.727 147.592C208.638 147.784 208.508 147.957 208.331 148.117L211.472 147.947L209.501 149.721L205.605 149.584L206.981 148.345Z" fill="#ECF0EF"/>
<path d="M216.997 137.32L218.134 138.583L219.807 140.442L221.039 139.333L217.291 135.17L216.06 136.279L216.997 137.32Z" fill="#ECF0EF"/>
<path d="M221.869 131.048L218.712 133.891L219.688 134.975L221.5 133.343L224.272 136.422L225.617 135.21L222.845 132.132L224.658 130.5L223.682 129.416L221.869 131.048Z" fill="#ECF0EF"/>
<path d="M216.839 140.243C216.646 140.17 216.463 140.144 216.272 140.148C216.08 140.163 215.893 140.209 215.697 140.296C215.5 140.383 215.332 140.501 215.168 140.648L215.118 140.593C215.244 140.479 215.347 140.352 215.422 140.207C215.49 140.067 215.541 139.92 215.551 139.765C215.566 139.617 215.545 139.467 215.489 139.316C215.439 139.171 215.358 139.031 215.241 138.9C215.079 138.721 214.902 138.6 214.709 138.538C214.516 138.476 214.321 138.45 214.116 138.477C213.918 138.499 213.724 138.562 213.533 138.655C213.336 138.754 213.162 138.877 212.997 139.025L208.432 143.136L208.51 143.223C208.629 143.127 208.758 143.067 208.885 143.03C209.013 142.994 209.144 142.988 209.274 143.005C209.404 143.023 209.533 143.064 209.655 143.123C209.77 143.187 209.884 143.275 209.978 143.381L210.146 143.567L211.497 142.35L213.581 140.473L213.606 140.451C213.682 140.382 213.774 140.345 213.87 140.337C213.966 140.329 214.047 140.368 214.119 140.449C214.192 140.529 214.222 140.614 214.204 140.708C214.187 140.803 214.146 140.885 214.064 140.959L214.038 140.981L211.948 142.863L210.597 144.08L212.923 146.651L217.167 142.83C217.337 142.677 217.467 142.515 217.562 142.329C217.657 142.142 217.716 141.954 217.734 141.759C217.752 141.563 217.735 141.366 217.675 141.172C217.616 140.979 217.508 140.796 217.357 140.629C217.19 140.443 217.024 140.323 216.839 140.243ZM215.691 142.017C215.677 142.141 215.611 142.246 215.517 142.331L213.281 144.344L212.69 143.687L214.925 141.674C215.026 141.583 215.136 141.54 215.256 141.534C215.381 141.533 215.492 141.579 215.581 141.679C215.676 141.784 215.705 141.892 215.691 142.017Z" fill="#ECF0EF"/>
<path d="M189.667 164.966L190.967 166.41L192.16 165.335L192.356 165.159L189.467 164.743L189.667 164.966Z" fill="#E1251B"/>
<path d="M194.216 158.83L192.783 157.238L191.444 158.443L191.449 158.449L194.216 158.83Z" fill="#E1251B"/>
<path d="M192.241 159.329L194.071 161.361L188.975 160.666L186.524 162.873L186.602 162.959C186.727 162.869 186.851 162.803 186.978 162.767C187.106 162.731 187.237 162.724 187.367 162.742C187.497 162.759 187.626 162.801 187.747 162.859C187.863 162.924 187.976 163.012 188.071 163.117L188.746 163.867L191.559 164.273L189.919 162.452L194.599 163.128L196.53 161.4L195.025 159.728L192.241 159.329Z" fill="#ECF0EF"/>
</g>
</g>
<defs>
<clipPath id="clip0_1655_2231">
<rect width="350" height="350" fill="white"/>
</clipPath>
<clipPath id="clip1_1655_2231">
<rect width="50" height="5.60109" fill="white" transform="translate(186.632 162.281) rotate(-42)"/>
</clipPath>
</defs>
</svg>
