<svg width="20" height="20" viewBox="0 0 20 20" fill="none" xmlns="http://www.w3.org/2000/svg">
<g clip-path="url(#clip0_743_3936)">
<path d="M10 20C4.48633 20 0 15.5137 0 10C0 4.48633 4.48633 0 10 0C15.5137 0 20 4.48633 20 10C20 15.5137 15.5137 20 10 20ZM10 1.66602C5.4043 1.66602 1.66602 5.4043 1.66602 10C1.66602 14.5957 5.4043 18.334 10 18.334C14.5957 18.334 18.334 14.5957 18.334 10C18.334 5.4043 14.5957 1.66602 10 1.66602Z" fill="#383A3D"/>
<path d="M8.49219 13.4414C8.34766 13.4414 8.20508 13.4043 8.07617 13.3301C7.81836 13.1816 7.66016 12.9063 7.66016 12.6074V7.5C7.66016 7.20312 7.81836 6.92773 8.07617 6.77734C8.33398 6.62891 8.65234 6.62891 8.91016 6.77734L13.334 9.33203C13.5918 9.48047 13.75 9.75586 13.75 10.0547C13.75 10.3516 13.5918 10.627 13.334 10.7773L8.9082 13.3301C8.7793 13.4063 8.63672 13.4414 8.49219 13.4414ZM9 8.5L9 10L9 11.5L12 10L9 8.5Z" fill="#CC392A"/>
</g>
<defs>
<clipPath id="clip0_743_3936">
<rect width="20" height="20" fill="white"/>
</clipPath>
</defs>
</svg>
