<svg width="11" height="14" viewBox="0 0 11 14" fill="none" xmlns="http://www.w3.org/2000/svg">
<path d="M8.11355 4.00681L8.51019 1.75409C8.5875 1.31422 8.46723 0.871435 8.18021 0.529328C7.89321 0.187245 7.47254 0 7.02616 0H3.14433C2.69795 0 2.2773 0.187245 1.99031 0.529302C1.70334 0.871358 1.58301 1.3154 1.66037 1.75528L2.05669 4.00699C0.809528 4.9351 0 6.42056 0 8.09171C0 10.8973 2.28124 13.1798 5.0853 13.1798C7.88935 13.1798 10.1706 10.8973 10.1706 8.09174C10.1706 6.42045 9.36088 4.93493 8.11355 4.00681ZM7.45399 1.56255L7.12521 3.43153C6.50038 3.15666 5.81041 3.0037 5.0853 3.0037C4.36018 3.0037 3.67016 3.15668 3.04538 3.43153L2.71653 1.56255C2.68599 1.38895 2.76305 1.27592 2.81165 1.21797C2.86027 1.16003 2.96815 1.07297 3.14433 1.07297H7.02616C7.20234 1.07297 7.31019 1.16003 7.35884 1.21797C7.40747 1.27594 7.4845 1.38895 7.45399 1.56255Z" fill="#B0B0B0"/>
</svg>
